<?xml version="1.0" encoding="UTF-8" standalone="no"?><!DOCTYPE svg PUBLIC "-//W3C//DTD SVG 1.1//EN" "http://www.w3.org/Graphics/SVG/1.1/DTD/svg11.dtd"><svg width="100%" height="100%" viewBox="0 0 3750 3750" version="1.1" xmlns="http://www.w3.org/2000/svg" xmlns:xlink="http://www.w3.org/1999/xlink" xml:space="preserve" xmlns:serif="http://www.serif.com/" style="fill-rule:evenodd;clip-rule:evenodd;stroke-linejoin:round;stroke-miterlimit:2;"><path d="M2258.35,949.442l-383.354,-383.35l-383.354,383.35l-549.779,-0l-0,549.783l-375.792,375.792l375.792,375.791l-0,549.734l549.733,-0l383.4,383.4l383.4,-383.4l534.567,-0l-0,-534.567l390.958,-390.958l-390.958,-390.963l-0,-534.612l-534.613,-0Zm-383.354,-265.5l348.833,348.833l485.8,0l0,485.8l356.442,356.442l-356.442,356.441l0,485.75l-485.754,0l-348.879,348.884l-348.879,-348.884l-500.921,0l-0,-500.92l-341.275,-341.271l341.275,-341.275l-0,-500.967l500.967,0l348.833,-348.833Z"/><path d="M2199.13,1125.6l-312.225,-310.2l-312.225,310.2l-447.908,0l-0,444.996l-306.404,304.417l306.404,304.416l-0,444.959l447.871,-0l312.262,310.237l312.263,-310.237l435.646,-0l-0.001,-432.813l318.63,-316.562l-318.63,-316.563l0.001,-432.85l-435.684,0Zm-46.546,71.225l12.188,12.109l386.708,-0l0,384.195l283.725,281.884l-283.725,281.883l0,384.158l-386.671,0l-277.904,276.1l-277.904,-276.1l-398.896,0l0,-396.304l-271.5,-269.737l271.5,-269.738l0,-396.341l398.933,-0l277.867,-276.063l265.679,263.954Z"/><path d="M1628.77,1762.62l2.954,-637.971l-506.829,1.046l-0,1498.62l499.883,0.937l2.954,-638.217l522.105,638.138l475.929,-0l-0,-493.104l-887.463,-257.442l887.859,-261.771l-6.155,-488.121l-463.145,0l-528.092,637.884Z"/></svg>